<svg version="1.1" xmlns="http://www.w3.org/2000/svg" xmlns:xlink="http://www.w3.org/1999/xlink" width="620.51873" height="326.01821" viewBox="0,0,620.51873,326.01821"><g transform="translate(79.69207,-41.22803)"><g data-paper-data="{&quot;isPaintingLayer&quot;:true}" fill-rule="nonzero" stroke-linejoin="miter" stroke-miterlimit="10" stroke-dasharray="" stroke-dashoffset="0" style="mix-blend-mode: normal"><g><path d="M-49.11006,367.24624v-326.01821h567.94442v326.01821z" fill="#00b259" stroke="#000000" stroke-width="0" stroke-linecap="butt"/><path d="M-61.87269,318.74827v-219.51713h585.80443v219.51713z" fill="#000000" stroke="none" stroke-width="0" stroke-linecap="butt"/><path d="M-65.65589,99.05264l588.90392,-1.82323" fill="none" stroke="#ffffff" stroke-width="5" stroke-linecap="round"/><path d="M-63.1072,321.97697l588.90392,-1.82324" fill="none" stroke="#ffffff" stroke-width="5" stroke-linecap="round"/><g fill="none" stroke="#ffffff" stroke-width="5" stroke-linecap="round"><path d="M-73.97268,150.72783l108.15105,-0.33483"/><path d="M417.23503,149.4439l108.15105,-0.33483"/><path d="M67.18271,150.99258l81.11329,-0.25113"/><path d="M188.54261,149.70865l81.11329,-0.25112"/><path d="M306.0699,150.34104l81.11329,-0.25112"/></g><g fill="none" stroke="#ffffff" stroke-width="5" stroke-linecap="round"><path d="M-73.34029,268.25511l108.15105,-0.33483"/><path d="M417.86741,266.97119l108.15105,-0.33483"/><path d="M67.81509,268.51987l81.11329,-0.25112"/><path d="M189.17499,267.23594l81.11329,-0.25112"/><path d="M306.70228,267.86832l81.11329,-0.25112"/></g><g fill="none" stroke="#ffeb08" stroke-width="5" stroke-linecap="round"><path d="M-75.90815,216.53469l614.2348,-1.90166"/><path d="M-77.19207,203.7529l614.2348,-1.90166"/></g></g></g></g></svg>